# xmcd CD database file
#
# Track frame offsets:
#	180
#	17031
#	31730
#	47139
#	62629
#	79880
#	93080
#	110780
#	125481
#	147531
#	163911
#
# Disc length: 2437 seconds
#
# Revision: 1
# Processed by: cddbd v1.4PL0 Copyright (c) Steve Scherf et al.
# Submitted via: CDex 1.40Release
#
DISCID=9509830b
DTITLE=Michelle Cole and the Cool - Michelle Cole and the Cool
DYEAR=1994
DGENRE=Country
TTITLE0=Love From a Distance
TTITLE1=Casual Affair
TTITLE2=Dominica
TTITLE3=One Step at a Time
TTITLE4=Echoes of Laughter
TTITLE5=Daddy
TTITLE6=I Remember
TTITLE7=Troubles
TTITLE8=Life's a Gamble
TTITLE9=Love Me Like I Need to be Loved
TTITLE10=Relax
EXTD=YEAR: 1994 ID3G: 2
EXTT0=
EXTT1=
EXTT2=
EXTT3=
EXTT4=
EXTT5=
EXTT6=
EXTT7=
EXTT8=
EXTT9=
EXTT10=
PLAYORDER=
